{
  "accessors": [
    {
      "bufferView": 2,
      "componentType": 5126,
      "count": 51014,
      "max": [
        8.4722518920898438,
        2.1070084571838379,
        9.1336393356323242
      ],
      "min": [
        -29.306230545043945,
        -34.111942291259766,
        -31.606847763061523
      ],
      "type": "VEC3"
    },
    {
      "bufferView": 2,
      "byteOffset": 612168,
      "componentType": 5126,
      "count": 51014,
      "max": [
        1,
        1,
        1
      ],
      "min": [
        -1,
        -1,
        -1
      ],
      "type": "VEC3"
    },
    {
      "bufferView": 3,
      "componentType": 5126,
      "count": 51014,
      "max": [
        1,
        0.99998998641967773,
        1,
        1
      ],
      "min": [
        -1,
        -0.99997681379318237,
        -1,
        -1
      ],
      "type": "VEC4"
    },
    {
      "bufferView": 1,
      "componentType": 5126,
      "count": 51014,
      "max": [
        0.96643918752670288,
        0.98919558525085449
      ],
      "min": [
        0.011240949854254723,
        0.010804235935211182
      ],
      "type": "VEC2"
    },
    {
      "bufferView": 1,
      "byteOffset": 408112,
      "componentType": 5126,
      "count": 51014,
      "max": [
        0.96643918752670288,
        0.98919558525085449
      ],
      "min": [
        0.011240949854254723,
        0.010804235935211182
      ],
      "type": "VEC2"
    },
    {
      "bufferView": 0,
      "componentType": 5125,
      "count": 252192,
      "max": [
        51013
      ],
      "min": [
        0
      ],
      "type": "SCALAR"
    }
  ],
  "asset": {
    "extras": {
      "author": "Dennis and Debbie Club (https://sketchfab.com/ddclub)",
      "license": "CC-BY-4.0 (http://creativecommons.org/licenses/by/4.0/)",
      "source": "https://sketchfab.com/3d-models/dog-as-gltf-directly-5b02b8f1d46e41d0a47eb5bfb07ff18d",
      "title": "Dog as GlTF directly"
    },
    "generator": "Sketchfab-9.62.3",
    "version": "2.0"
  },
  "bufferViews": [
    {
      "buffer": 0,
      "byteLength": 1008768,
      "byteOffset": 0,
      "name": "floatBufferViews",
      "target": 34963
    },
    {
      "buffer": 0,
      "byteLength": 816224,
      "byteOffset": 1008768,
      "byteStride": 8,
      "name": "floatBufferViews",
      "target": 34962
    },
    {
      "buffer": 0,
      "byteLength": 1224336,
      "byteOffset": 1824992,
      "byteStride": 12,
      "name": "floatBufferViews",
      "target": 34962
    },
    {
      "buffer": 0,
      "byteLength": 816224,
      "byteOffset": 3049328,
      "byteStride": 16,
      "name": "floatBufferViews",
      "target": 34962
    }
  ],
  "buffers": [
    {
      "byteLength": 3865552,
      "uri": "scene.bin"
    }
  ],
  "images": [
    {
      "uri": "textures/material_baseColor.png"
    },
    {
      "uri": "textures/material_normal.png"
    }
  ],
  "materials": [
    {
      "doubleSided": true,
      "emissiveFactor": [
        0,
        0,
        0
      ],
      "name": "material",
      "normalTexture": {
        "index": 1,
        "scale": 1,
        "texCoord": 0
      },
      "pbrMetallicRoughness": {
        "baseColorFactor": [
          1,
          1,
          1,
          1
        ],
        "baseColorTexture": {
          "index": 0,
          "texCoord": 0
        },
        "metallicFactor": 0,
        "roughnessFactor": 1
      }
    }
  ],
  "meshes": [
    {
      "primitives": [
        {
          "attributes": {
            "NORMAL": 1,
            "POSITION": 0,
            "TANGENT": 2,
            "TEXCOORD_0": 3,
            "TEXCOORD_1": 4
          },
          "indices": 5,
          "material": 0,
          "mode": 4
        }
      ]
    }
  ],
  "nodes": [
    {
      "children": [
        1
      ],
      "name": "RootNode (gltf orientation matrix)",
      "rotation": [
        -0.70710678118654746,
        -0,
        -0,
        0.70710678118654757
      ]
    },
    {
      "children": [
        2
      ],
      "name": "RootNode (model correction matrix)"
    },
    {
      "children": [
        3
      ],
      "name": "root"
    },
    {
      "children": [
        4
      ],
      "matrix": [
        1,
        0,
        0,
        0,
        0,
        2.2204460492503131e-16,
        1,
        0,
        0,
        -1,
        2.2204460492503131e-16,
        0,
        0,
        0,
        0,
        1
      ],
      "name": "GLTF_SceneRootNode"
    },
    {
      "children": [
        5
      ],
      "matrix": [
        0.14728565689565995,
        0.093612322478952764,
        -0.0091182391907444708,
        0,
        -0.069927566431383897,
        0.097656971862812442,
        -0.12693586891167771,
        0,
        -0.062901046426451362,
        0.11063143962003726,
        0.11976479634202965,
        0,
        -0.37828779220581055,
        1.2317898273468018,
        -0.26991558074951172,
        1
      ],
      "name": "dog_0"
    },
    {
      "mesh": 0,
      "name": ""
    }
  ],
  "samplers": [
    {
      "magFilter": 9729,
      "minFilter": 9987,
      "wrapS": 10497,
      "wrapT": 10497
    }
  ],
  "scene": 0,
  "scenes": [
    {
      "name": "OSG_Scene",
      "nodes": [
        0
      ]
    }
  ],
  "textures": [
    {
      "sampler": 0,
      "source": 0
    },
    {
      "sampler": 0,
      "source": 1
    }
  ]
}

